<?xml version="1.0" standalone="no"?>
<!DOCTYPE svg PUBLIC "-//W3C//DTD SVG 20010904//EN"
 "http://www.w3.org/TR/2001/REC-SVG-20010904/DTD/svg10.dtd">
<svg version="1.0" xmlns="http://www.w3.org/2000/svg"
 width="512.000000pt" height="512.000000pt" viewBox="0 0 512.000000 512.000000"
 preserveAspectRatio="xMidYMid meet">
<metadata>
Created by potrace 1.11, written by Peter Selinger 2001-2013
</metadata>
<g transform="translate(0.000000,512.000000) scale(0.100000,-0.100000)"
fill="#000000" stroke="none">
<path d="M0 2560 l0 -2560 2560 0 2560 0 0 2560 0 2560 -2560 0 -2560 0 0
-2560z m3600 1019 c95 -11 208 -35 228 -48 10 -6 9 -25 -9 -97 -12 -49 -23
-90 -24 -92 -2 -2 -38 6 -81 18 -363 95 -633 -7 -660 -250 -11 -104 43 -194
164 -273 37 -24 160 -89 275 -145 199 -98 211 -105 285 -179 118 -118 162
-220 162 -373 0 -244 -107 -418 -321 -524 -126 -62 -222 -80 -389 -73 -129 6
-227 26 -327 68 -29 12 -53 28 -53 36 0 7 10 52 21 99 18 70 25 84 38 78 9 -4
60 -22 113 -41 244 -85 453 -63 588 63 71 67 103 136 108 240 7 141 -38 237
-152 321 -33 25 -166 97 -294 159 -218 107 -237 118 -300 181 -127 128 -168
275 -127 452 40 166 168 292 360 355 106 34 251 43 395 25z m-1644 -523 c110
-16 244 -55 244 -70 0 -6 -12 -46 -26 -89 -23 -70 -29 -78 -48 -74 -11 3 -57
15 -101 27 -101 27 -271 37 -357 21 -126 -25 -231 -94 -303 -200 -94 -140
-126 -345 -83 -531 29 -127 130 -271 238 -340 134 -86 343 -96 573 -29 37 11
71 18 76 15 4 -3 14 -34 20 -68 7 -35 14 -70 17 -80 6 -21 -69 -50 -208 -79
-86 -18 -125 -20 -238 -16 -76 3 -161 12 -195 22 -246 66 -426 243 -495 485
-28 97 -37 286 -21 400 64 435 428 678 907 606z"/>
</g>
</svg>
